HIERARCHY
ROOT Hips
{
	OFFSET -3.958830 18.904000 13.208200
	CHANNELS 6 Xposition Yposition Zposition Zrotation Yrotation Xrotation 
	JOINT LHipJoint
	{
		OFFSET 0.000000 0.000000 0.000000
		CHANNELS 3 Zrotation Yrotation Xrotation
		JOINT LeftUpLeg
		{
			OFFSET 1.800000 -1.400000 0.085000
			CHANNELS 3 Zrotation Yrotation Xrotation
			JOINT LeftLeg
			{
				OFFSET 2.215000 -6.000000 0.000000
				CHANNELS 3 Zrotation Yrotation Xrotation
				JOINT LeftFoot
				{
					OFFSET 2.500000 -6.900000 0.000000
					CHANNELS 3 Zrotation Yrotation Xrotation
					JOINT LeftToeBase
					{
						OFFSET 0.200000 -0.500000 1.950000
						CHANNELS 3 Zrotation Yrotation Xrotation
						End Site
						{
							OFFSET 0.000000 0.000000 0.000000
						}
					}
				}
			}
		}
	}
	JOINT RHipJoint
	{
		OFFSET 0.000000 0.000000 0.000000
		CHANNELS 3 Zrotation Yrotation Xrotation
		JOINT RightUpLeg
		{
			OFFSET -1.800000 -1.400000 0.085000
			CHANNELS 3 Zrotation Yrotation Xrotation
			JOINT RightLeg
			{
				OFFSET -2.215000 -6.000000 0.000000
				CHANNELS 3 Zrotation Yrotation Xrotation
				JOINT RightFoot
				{
					OFFSET -2.500000 -6.900000 0.000000
					CHANNELS 3 Zrotation Yrotation Xrotation
					JOINT RightToeBase
					{
						OFFSET -0.200000 -0.500000 1.950000
						CHANNELS 3 Zrotation Yrotation Xrotation
						End Site
						{
							OFFSET 0.000000 0.000000 0.000000
						}
					}
				}
			}
		}
	}
	JOINT LowerBack
	{
		OFFSET 0.000000 0.000000 0.000000
		CHANNELS 3 Zrotation Yrotation Xrotation
		JOINT Spine
		{
			OFFSET -0.087000 1.940000 -0.288900
			CHANNELS 3 Zrotation Yrotation Xrotation
			JOINT Spine1
			{
				OFFSET 0.000000 1.950000 0.060000
				CHANNELS 3 Zrotation Yrotation Xrotation
				JOINT Neck
				{
					OFFSET 0.000000 0.000000 0.000000
					CHANNELS 3 Zrotation Yrotation Xrotation
					JOINT Neck1
					{
						OFFSET 0.000000 1.600000 0.340000
						CHANNELS 3 Zrotation Yrotation Xrotation
						JOINT Head
						{
							OFFSET 0.000000 1.667000 -0.240000
							CHANNELS 3 Zrotation Yrotation Xrotation
							End Site
							{
								OFFSET 0.000000 0.000000 0.000000
							}
						}
					}
				}
				JOINT LeftShoulder
				{
					OFFSET 0.000000 0.000000 0.000000
					CHANNELS 3 Zrotation Yrotation Xrotation
					JOINT LeftArm
					{
						OFFSET 2.700000 1.550000 -0.730000
						CHANNELS 3 Zrotation Yrotation Xrotation
						JOINT LeftForeArm
						{
							OFFSET 5.450000 0.000000 0.000000
							CHANNELS 3 Zrotation Yrotation Xrotation
							JOINT LeftHand
							{
								OFFSET 3.450000 0.000000 0.000000
								CHANNELS 3 Zrotation Yrotation Xrotation
								JOINT LeftHandIndex1
								{
									OFFSET 0.750000 0.000000 0.000000
									CHANNELS 3 Zrotation Yrotation Xrotation
									End Site
									{
										OFFSET 0.000000 0.000000 0.000000
									}
								}
							}
						}
					}
				}
				JOINT RightShoulder
				{
					OFFSET 0.000000 0.000000 0.000000
					CHANNELS 3 Zrotation Yrotation Xrotation
					JOINT RightArm
					{
						OFFSET -2.700000 1.550000 -0.730000
						CHANNELS 3 Zrotation Yrotation Xrotation
						JOINT RightForeArm
						{
							OFFSET -5.450000 0.000000 0.000000
							CHANNELS 3 Zrotation Yrotation Xrotation
							JOINT RightHand
							{
								OFFSET -3.450000 0.000000 0.000000
								CHANNELS 3 Zrotation Yrotation Xrotation
								JOINT RightHandIndex1
								{
									OFFSET -0.750000 0.000000 0.000000
									CHANNELS 3 Zrotation Yrotation Xrotation
									End Site
									{
										OFFSET 0.000000 0.000000 0.000000
									}
								}
							}
						}
					}
				}
			}
		}
	}
}
MOTION
Frames: 9
Frame Time: 0.016667
0.956850 17.113450 0.239180 -4.264559 -2.869644 -8.339203 -15.116835 13.188144 2.652978 0.001783 0.798950 2.293641 -5.397589 5.977722 10.719991 -0.427084 4.875046 3.084480 0.229030 -0.092910 0.246410 18.608206 -8.874471 4.600564 2.398350 7.328146 -53.633804 1.019330 -6.237313 35.115435 -0.177443 -4.048469 2.958386 0.082560 0.251760 0.094720 -4.132275 -3.627712 -7.980716 20.042381 -12.963240 22.148485 -6.887914 -9.711884 6.774469 1.197434 -5.199916 -8.465882 -13.370308 5.369767 34.519568 -8.273950 7.047140 -9.451830 -18.751554 -9.308749 -0.055588 -29.213067 -19.404302 -5.676846 61.778616 -83.426294 -52.964306 -3.406523 1.104946 0.534940 0.210390 -0.154850 0.058560 16.263579 6.968059 7.712692 52.239586 -2.890197 -12.894340 43.160285 81.665840 26.893458 1.803298 -1.867369 -0.368700 0.286530 0.125720 -0.353030 
0.950940 17.109090 0.246420 -4.034229 -2.953045 -8.410016 -15.118472 13.218457 2.669381 -0.214984 0.810084 2.242651 -5.292272 5.999618 11.122723 -0.427867 4.890692 3.078966 0.218990 -0.107890 0.243500 18.597011 -8.916290 4.559356 2.384148 7.268656 -52.922811 0.915722 -6.234229 35.397953 -0.181435 -4.094354 2.946367 0.074550 0.255600 0.095080 -4.112125 -3.638143 -7.980997 19.637637 -12.708916 22.051194 -6.751346 -9.591226 6.790838 1.219736 -5.001023 -8.450255 -13.057968 5.288534 34.909273 -8.391070 7.155340 -9.192140 -18.818585 -9.257089 -0.034226 -29.324537 -19.346104 -5.592645 62.031714 -83.666994 -53.385395 -3.411764 1.074523 0.536950 0.214850 -0.158910 0.054840 16.291440 6.859089 7.664244 52.507584 -2.752316 -13.035555 41.741723 81.864970 25.954541 1.787192 -1.870961 -0.373730 0.286000 0.132020 -0.356830 
0.943550 17.104880 0.253760 -3.785896 -3.053206 -8.460580 -15.120333 13.251330 2.681745 -0.442146 0.796986 2.091709 -5.180620 6.031991 11.689511 -0.424839 4.907092 3.073994 0.207860 -0.122400 0.237590 18.585158 -8.956674 4.523509 2.395256 7.233470 -52.227612 0.794583 -6.225983 35.729582 -0.186983 -4.148008 2.932253 0.065670 0.261540 0.096430 -4.090218 -3.652823 -7.982261 19.185075 -12.436397 21.937098 -6.593729 -9.455296 6.771786 1.233677 -4.810280 -8.442864 -12.766803 5.227993 35.309245 -8.470330 7.265940 -8.817310 -18.928423 -9.189688 0.000204 -29.476971 -19.218049 -5.532463 61.893365 -83.922259 -53.521693 -3.420783 1.075275 0.536100 0.220510 -0.162830 0.053290 16.380334 6.751395 7.617126 52.806241 -2.644006 -13.175985 40.434257 81.952386 25.031299 1.774792 -1.873688 -0.376950 0.284560 0.137020 -0.357540 
0.935310 17.100640 0.260670 -3.523323 -3.210302 -8.515566 -15.122050 13.282849 2.693255 -0.700475 0.776067 1.911244 -5.031923 6.058985 12.326009 -0.421898 4.921455 3.068083 0.199130 -0.134180 0.233420 18.573653 -8.995618 4.492259 2.449892 7.225368 -51.547394 0.640532 -6.198817 36.074387 -0.193622 -4.199487 2.918910 0.057820 0.264900 0.098040 -4.068474 -3.665501 -7.984523 18.713382 -12.164523 21.868169 -6.439543 -9.312146 6.708236 1.236902 -4.646238 -8.422637 -12.522431 5.185911 35.688948 -8.550760 7.375430 -8.511040 -19.071363 -9.089872 0.022588 -29.600609 -19.027010 -5.498660 61.738900 -84.233407 -53.703632 -3.428867 1.078056 0.535940 0.224530 -0.164980 0.051840 16.525358 6.631658 7.551454 53.140400 -2.522257 -13.337783 38.960090 81.894454 23.928539 1.762186 -1.874585 -0.378710 0.282100 0.140540 -0.358400 
0.926720 17.095630 0.267870 -3.276881 -3.419061 -8.521732 -15.124209 13.310023 2.700055 -0.954629 0.735377 1.660196 -4.880206 6.084678 13.010953 -0.416228 4.934475 3.063171 0.190240 -0.144840 0.228120 18.563367 -9.025393 4.471803 2.543634 7.265815 -50.951400 0.501293 -6.165516 36.415201 -0.200539 -4.249321 2.905181 0.049720 0.270310 0.100700 -4.047650 -3.679764 -7.986712 18.273892 -11.889108 21.774153 -6.253695 -9.154142 6.600722 1.213485 -4.521435 -8.385530 -12.333726 5.162221 35.967545 -8.580180 7.465750 -8.167250 -19.231802 -8.923265 0.028335 -29.754399 -18.828575 -5.441740 61.207690 -84.582350 -53.623233 -3.441586 1.112225 0.532260 0.229330 -0.167510 0.051240 16.741024 6.472290 7.467831 53.401657 -2.453433 -13.473888 37.639393 81.783122 22.929906 1.753485 -1.875051 -0.378310 0.279460 0.143800 -0.356560 
0.917670 17.089230 0.275620 -3.035319 -3.676426 -8.484712 -15.127536 13.331825 2.701968 -1.238120 0.682908 1.346027 -4.677419 6.096845 13.746798 -0.412264 4.943045 3.060288 0.182300 -0.153300 0.221680 18.554326 -9.043653 4.464816 2.697862 7.363971 -50.477332 0.312480 -6.105547 36.783866 -0.207112 -4.299022 2.893390 0.043940 0.277270 0.101290 -4.026853 -3.696616 -7.989628 17.835949 -11.611864 21.666781 -6.045414 -8.986660 6.450117 1.167831 -4.428478 -8.327179 -12.177820 5.173425 36.131093 -8.555430 7.564410 -7.827350 -19.345623 -8.655777 0.014635 -29.994848 -18.632387 -5.356565 60.738417 -84.950488 -53.616310 -3.453819 1.141609 0.527190 0.234880 -0.171500 0.052500 16.955871 6.238645 7.345787 53.652781 -2.386577 -13.567788 36.391972 81.558838 21.973562 1.745143 -1.874389 -0.379070 0.278930 0.145980 -0.354140 
0.908760 17.082020 0.283270 -2.805223 -3.977415 -8.438011 -15.132079 13.347760 2.701750 -1.503954 0.614823 1.003500 -4.521018 6.121847 14.514710 -0.407233 4.957702 3.053946 0.174300 -0.160820 0.214000 18.545978 -9.050175 4.470420 2.881934 7.510750 -50.119256 0.111936 -6.040741 37.198450 -0.214605 -4.355979 2.879523 0.038280 0.283860 0.102500 -4.005048 -3.716246 -7.997361 17.412038 -11.331850 21.579903 -5.817032 -8.800669 6.274497 1.120427 -4.352167 -8.264613 -12.048543 5.191050 36.262984 -8.563310 7.677140 -7.487560 -19.482794 -8.376188 -0.004857 -30.227638 -18.425004 -5.270919 60.130662 -85.330161 -53.511958 -3.468036 1.183676 0.521370 0.241180 -0.175730 0.053470 17.197800 6.008448 7.220746 53.875411 -2.353476 -13.693397 35.006858 81.272142 20.901597 1.735454 -1.873091 -0.378870 0.276890 0.148510 -0.351400 
0.900110 17.074790 0.291200 -2.595473 -4.282480 -8.393520 -15.137881 13.362343 2.699262 -1.764184 0.534821 0.647292 -4.326238 6.140096 15.319093 -0.405148 4.976208 3.046634 0.165060 -0.170060 0.206830 18.537545 -9.048602 4.483633 3.071213 7.673570 -49.853905 -0.069075 -5.984528 37.625573 -0.221544 -4.415798 2.865479 0.032960 0.291190 0.101150 -3.981349 -3.742849 -8.007424 17.002353 -11.069655 21.508791 -5.576634 -8.619392 6.090129 1.076327 -4.277655 -8.197476 -11.925602 5.228514 36.384277 -8.576920 7.813250 -7.169800 -19.594476 -8.063847 -0.024458 -30.505150 -18.239423 -5.159572 58.898142 -85.671915 -52.872867 -3.487732 1.268481 0.517190 0.247850 -0.181500 0.052960 17.408791 5.743667 7.080446 54.095657 -2.340095 -13.832077 33.574804 80.896447 19.783747 1.724467 -1.868139 -0.381860 0.277410 0.152110 -0.350500 
0.892310 17.067950 0.298480 -2.437615 -4.591498 -8.377801 -15.141862 13.370795 2.694948 -1.948509 0.439960 0.319995 -4.205822 6.175630 16.090501 -0.403326 5.003454 3.034527 0.161390 -0.174900 0.204700 18.532027 -9.043600 4.500295 3.287389 7.847546 -49.644210 -0.235442 -5.926386 38.007257 -0.230561 -4.465073 2.852015 0.029880 0.293900 0.100210 -3.964632 -3.762033 -8.016427 16.707697 -10.859699 21.504594 -5.386266 -8.455941 5.907502 1.026799 -4.251848 -8.119352 -11.896853 5.283800 36.466708 -8.534850 7.891400 -7.041810 -19.699526 -7.732245 -0.067336 -30.773995 -18.100272 -5.049300 57.531451 -85.931072 -52.041374 -3.503460 1.363145 0.516790 0.249750 -0.184270 0.051880 17.619163 5.471695 6.939365 54.300325 -2.358611 -13.984921 32.281859 80.531484 18.779881 1.714784 -1.862497 -0.383380 0.277620 0.154350 -0.351150 
